<svg aria-hidden="true" style="position: absolute; width: 0; height: 0; overflow: hidden;" version="1.1" xmlns="http://www.w3.org/2000/svg" xmlns:xlink="http://www.w3.org/1999/xlink">
<defs>
<symbol id="icon-arrow-right" viewBox="0 0 54 32">
<path fill="#ff6b09" style="fill: var(--color1, #ff6b09)" d="M2 14c-1.105 0-2 0.895-2 2s0.895 2 2 2v0-4zM53.414 17.414c0.362-0.362 0.586-0.862 0.586-1.414s-0.224-1.052-0.586-1.414l-12.728-12.728c-0.364-0.377-0.874-0.611-1.439-0.611-1.105 0-2 0.895-2 2 0 0.565 0.234 1.074 0.61 1.438l0.001 0.001 11.314 11.314-11.314 11.314c-0.347 0.359-0.561 0.849-0.561 1.389 0 1.105 0.895 2 2 2 0.54 0 1.030-0.214 1.39-0.562l-0.001 0.001 12.728-12.728zM2 18h50v-4h-50v4z"></path>
</symbol>
<symbol id="icon-arrow-left" viewBox="0 0 54 32">
<path fill="#ff6b09" style="fill: var(--color1, #ff6b09)" d="M52 14c1.105 0 2 0.895 2 2s-0.895 2-2 2v0-4zM0.586 17.414c-0.362-0.362-0.586-0.862-0.586-1.414s0.224-1.052 0.586-1.414l12.728-12.728c0.357-0.335 0.838-0.541 1.368-0.541 1.105 0 2 0.895 2 2 0 0.53-0.206 1.012-0.543 1.37l0.001-0.001-11.312 11.314 11.314 11.314c0.377 0.364 0.611 0.874 0.611 1.439 0 1.105-0.895 2-2 2-0.565 0-1.074-0.234-1.438-0.61l-0.001-0.001-12.728-12.728zM52 18h-50v-4h50v4z"></path>
</symbol>
<symbol id="icon-fire" viewBox="0 0 24 32">
<path fill="#ff6b09" style="fill: var(--color1, #ff6b09)" d="M21.909 16.592c-0.283-0.634-0.675-1.259-1.248-1.982-1.44-1.813-1.882-5.856-1.886-5.896-0.022-0.194-0.155-0.352-0.333-0.41l-0.003-0.001c-0.045-0.015-0.096-0.023-0.15-0.023-0.146 0-0.277 0.063-0.368 0.164l-0 0c-1.722 1.925-0.998 4.896-0.608 6.085 0.109 0.325 0.226 0.707 0.309 1.096 0.635 3.136-0.592 4.557-0.88 4.843-0.278 0.077-0.469 0.038-0.645-0.15-0.608-0.664-0.806-2.842-0.523-5.678 0.059-0.576 0.043-1.094-0.040-1.579-0.597-3.488-2.79-5.723-3.349-6.507-1.536-2.269-1.691-6.046-1.696-6.080-0.010-0.261-0.225-0.469-0.488-0.469-0.103 0-0.198 0.032-0.277 0.086l0.002-0.001c-2.56 1.741-2.341 5.936-1.984 8.277 0.083 0.544 0.245 1.096 0.523 1.794 0.992 2.498-0.195 5.722-0.206 5.75-0.010 0.030-0.019 0.054-0.024 0.083-0.152 0.795-0.405 1.27-0.688 1.27-0.034-0.001-0.066-0.007-0.097-0.017l0.002 0.001c-0.347-0.072-0.528-0.44-0.533-0.76-0.019-4.136-4.17-5.528-4.214-5.542s-0.096-0.024-0.15-0.024c-0.147 0-0.279 0.065-0.368 0.169l-0.001 0.001c-0.075 0.084-0.12 0.195-0.12 0.316 0 0.080 0.020 0.155 0.054 0.221l-0.001-0.003c0.048 0.101 0.205 0.547 0.096 2.123-0.091 1.416-0.352 2.816-0.766 4.16-0.528 1.721-0.832 3.698-0.832 5.747 0 0.234 0.004 0.468 0.012 0.7l-0.001-0.034c0.758 8.256 12.635 9.704 19.682 5.051 0.732-0.471 1.351-1.046 1.856-1.712l0.013-0.018c2.6-3.589 1.070-8.461-0.069-11.050zM3.845 24.48c0.014 0.269-0.192 0.496-0.461 0.512h-0.029c-0.001 0-0.002 0-0.002 0-0.259 0-0.47-0.202-0.485-0.456l-0-0.001c-0.045-0.707-0.035-1.45 0.019-2.254 0.022-0.254 0.234-0.452 0.493-0.452 0.011 0 0.021 0 0.032 0.001l-0.001-0c0.255 0.018 0.456 0.229 0.456 0.487 0 0.012-0 0.023-0.001 0.035l0-0.002c-0.054 0.765-0.064 1.464-0.019 2.133zM4.085 20.186c-0.030 0.242-0.234 0.427-0.481 0.427-0.001 0-0.002 0-0.004 0h0c-0.019 0-0.040 0-0.064-0.005-0.243-0.031-0.429-0.237-0.429-0.486 0-0.019 0.001-0.037 0.003-0.056l-0 0.002 0.235-1.872c0.035-0.241 0.24-0.424 0.488-0.424 0.021 0 0.041 0.001 0.062 0.004l-0.002-0c0.243 0.029 0.429 0.235 0.429 0.483 0 0.021-0.001 0.043-0.004 0.063l0-0.002-0.235 1.866zM18.602 6.634c-0.236-0.035-0.415-0.237-0.415-0.48 0-0.026 0.002-0.051 0.006-0.075l-0 0.003c0.032-0.198 0.208-1.206 0.688-1.712 0.090-0.095 0.216-0.154 0.357-0.154 0.128 0 0.245 0.049 0.333 0.13l-0-0c0.197 0.184 0.208 0.491 0.022 0.686-0.203 0.214-0.376 0.829-0.432 1.197-0.038 0.234-0.24 0.411-0.482 0.411-0.028 0-0.055-0.002-0.081-0.007l0.003 0zM0.778 9.048c-0.093-0.36-0.326-0.955-0.549-1.149-0.102-0.089-0.167-0.219-0.167-0.364 0-0.123 0.046-0.236 0.122-0.321l-0 0c0.090-0.101 0.221-0.164 0.367-0.164 0.123 0 0.236 0.045 0.322 0.12l-0.001-0c0.528 0.459 0.803 1.445 0.853 1.638 0.009 0.036 0.015 0.076 0.015 0.119 0 0.226-0.154 0.416-0.363 0.469l-0.003 0.001c-0.037 0.010-0.079 0.015-0.122 0.015-0.226 0-0.416-0.153-0.472-0.361l-0.001-0.003z"></path>
</symbol>
<symbol id="icon-check" viewBox="0 0 41 32">
<path fill="#ff6b09" style="fill: var(--color1, #ff6b09)" d="M34.457 1.513c-1.486 0.663-2.907 1.477-4.265 2.379-2.731 1.797-5.227 3.936-7.57 6.217-2.29 2.257-4.442 4.632-6.455 7.124l-0.125 0.16-2.823 3.467-9.595-14.379-3.623 10.041 12.978 15.477c1.257-2.551 2.471-5.070 3.662-7.257 0.297-0.558 0.606-1.081 0.901-1.614 0 0 1.522-2.674 1.925-3.351 1.787-3.021 3.516-5.573 5.381-8.016l-0.144 0.196c1.909-2.491 3.984-4.869 6.336-6.962 1.17-1.051 2.416-2.025 3.749-2.871 1.226-0.81 2.634-1.526 4.121-2.079l0.145-0.047c-1.741 0.366-3.276 0.888-4.722 1.568l0.13-0.055z"></path>
</symbol>
</defs>
</svg>
