<svg xmlns="http://www.w3.org/2000/svg" aria-hidden="true" style="position:absolute;width:0;height:0;overflow:hidden"><defs><symbol id="icon-cross1" viewBox="0 0 34 32"><path fill="none" stroke="#fff" stroke-width="4" d="M2.004 30.496 30.996 1.504m0 28.992L2.004 1.504" style="stroke:var(--color1, #fff)"/></symbol><symbol id="icon-menu" viewBox="0 0 48 32"><path stroke-width="4.571" d="M0 2.286h46.857M0 16h46.857M0 29.714h46.857"/></symbol><symbol id="icon-audio-book" viewBox="0 0 39 32"><path fill="#ff6b09" d="M3.047 29.453h12.23a3.743 3.743 0 0 0 3.367 2.115h.801a3.737 3.737 0 0 0 3.356-2.093l.01-.022h12.237a2.288 2.288 0 0 0 2.286-2.286V5.262a2.288 2.288 0 0 0-2.286-2.285h-1.234V1.956A1.525 1.525 0 0 0 32.29.433H5.799a1.525 1.525 0 0 0-1.524 1.523v1.021H3.048A2.289 2.289 0 0 0 .761 5.262v21.905a2.288 2.288 0 0 0 2.287 2.286zm29.24-4.702H19.81V7.046c2.885.377 5.121 2.845 5.121 5.831v.687l-.181-.04a.763.763 0 0 0-.907.575l-.001.005-1.213 5.52a.762.762 0 0 0 .575.906l.005.001 2.621.578a1.944 1.944 0 0 0 2.318-1.492l.702-3.192a1.953 1.953 0 0 0-1.472-2.321l-.013-.003-.912-.201v-1.023c0-3.827-2.917-6.987-6.645-7.371V1.955h12.48l-.001 22.796zm-7.12-9.574 1.871.412a.422.422 0 0 1 .325.508l-.702 3.191a.45.45 0 0 1-.507.331l-1.873-.413.886-4.029zM5.799 1.955h12.487v3.55c-3.731.381-6.651 3.542-6.651 7.372v1.022l-.913.202a1.945 1.945 0 0 0-1.218.846l-.005.008a1.91 1.91 0 0 0-.257 1.482l-.003-.013.7 3.189a1.961 1.961 0 0 0 2.338 1.493l-.013.002 2.61-.577a.764.764 0 0 0 .58-.912l.001.005-1.213-5.519a.762.762 0 0 0-.913-.579l.005-.001-.174.038v-.685c0-2.988 2.24-5.458 5.128-5.832v17.707H5.8V1.956zm7.117 13.222.887 4.029-1.863.411a.432.432 0 0 1-.511-.325l-.001-.003-.702-3.196a.42.42 0 0 1 .056-.321l-.001.002a.429.429 0 0 1 .265-.186l.003-.001 1.867-.412zM2.286 5.262c0-.42.341-.762.761-.762h1.227v20.251a1.525 1.525 0 0 0 1.525 1.524H32.29a1.525 1.525 0 0 0 1.524-1.523V4.5h1.234c.421 0 .762.342.762.762v21.905c0 .42-.341.762-.762.762H22.294a.763.763 0 0 0-.729.539 2.226 2.226 0 0 1-2.126 1.577h-.785a2.23 2.23 0 0 1-2.13-1.571l-.004-.016a.762.762 0 0 0-.725-.529H3.048a.762.762 0 0 1-.762-.762V5.262z" style="fill:var(--color2, #ff6b09)"/></symbol><symbol id="icon-open-book" viewBox="0 0 46 32"><path fill="#fff" d="M20.267 4.608H6.627v1.021h13.64V4.608zm0 3.808H8.67v1.021h11.597V8.416zm0 3.808H6.627v1.021h13.64v-1.021zm0 3.808H8.67v1.021h11.597v-1.021zm0 3.808H6.627v1.021h13.64V19.84zm0 3.808H8.67v1.021h11.597v-1.021zM38.99 4.608H25.35v1.021h13.64V4.608zm-2.043 3.808H25.35v1.021h11.596V8.416zm2.043 3.808H25.35v1.021h13.64v-1.021zm-2.043 3.808H25.35v1.021h11.596v-1.021zm2.043 3.808H25.35v1.021h13.64V19.84zm-2.043 3.808H25.35v1.021h11.596v-1.021z" style="fill:var(--color1, #fff)"/><path fill="#fff" d="M43.915 3.445h-1.872V.633a.511.511 0 0 0-.511-.511H26.249c-1.469 0-2.75.802-3.43 1.991l-.01.019A3.957 3.957 0 0 0 19.367.121H4.086a.511.511 0 0 0-.511.511v2.812H1.702a.511.511 0 0 0-.511.511v27.411c0 .282.229.511.511.511h42.213a.51.51 0 0 0 .51-.511V3.955a.511.511 0 0 0-.511-.511zM26.267 1.144H41.02v27.349H25.178c-.703 0-1.405.296-1.859.68V4.076a2.932 2.932 0 0 1 2.932-2.932h.015-.001zm-21.671 0h14.773a2.924 2.924 0 0 1 2.922 2.824v.005c.001.022.003.091.007.113v25.087a2.987 2.987 0 0 0-1.852-.678H4.596V1.145zM2.213 4.467h1.362v24.538c0 .282.229.511.511.511h16.36c.779 0 1.531.511 1.772 1.341H2.213V4.468zm41.191 26.389H23.4a1.85 1.85 0 0 1 1.775-1.341H41.532a.511.511 0 0 0 .511-.511V4.466h1.361v26.389z" style="fill:var(--color1, #fff)"/></symbol><symbol id="icon-study-program" viewBox="0 0 31 32"><path fill="#ff6b09" d="m30.151 4.961-.001-.003a.225.225 0 0 0-.025-.046l.001.001-.003-.003a.278.278 0 0 0-.033-.042L25.283.062a.237.237 0 0 0-.039-.032l-.001-.001c-.003-.002-.007-.003-.009-.006A.518.518 0 0 0 25.2.004l-.002-.001-.011-.004a.28.28 0 0 0-.098-.02H3.912a.283.283 0 0 0-.283.284v29.311a.25.25 0 0 0 .005.055l.007.023.01.03c.003.009.009.017.013.025.004.007.007.016.013.023a.26.26 0 0 0 .033.04l2.167 2.167a.283.283 0 0 0 .402 0l1.965-1.964 1.964 1.964c.051.052.122.084.201.084s.15-.032.201-.084l1.963-1.963 1.965 1.963a.283.283 0 0 0 .402 0l1.963-1.963 1.964 1.963a.283.283 0 0 0 .402 0l1.965-1.964 1.964 1.964a.282.282 0 0 0 .402 0l1.964-1.963 1.965 1.963a.283.283 0 0 0 .402 0l2.165-2.165.011-.013.024-.029c.007-.009.011-.02.016-.03.004-.007.007-.012.009-.019.007-.013.009-.027.013-.04l.005-.013a.324.324 0 0 0 .005-.056V5.068a.314.314 0 0 0-.023-.111l.001.002zM25.367.949l3.836 3.835h-3.836V.949zm4.237 28.507-1.88 1.88-1.965-1.964a.283.283 0 0 0-.402 0l-1.963 1.964-1.964-1.964a.283.283 0 0 0-.402 0l-1.965 1.964-1.963-1.964c-.051-.052-.122-.084-.201-.084s-.15.032-.201.084l-1.963 1.964-1.965-1.964a.287.287 0 0 0-.402 0l-1.963 1.964-1.964-1.964a.287.287 0 0 0-.402 0l-1.964 1.964-1.88-1.88V.547h20.603v4.522c0 .157.127.284.284.284h4.521v24.103z" style="fill:var(--color2, #ff6b09)"/><path fill="#ff6b09" d="M6.313 3.234h9.303a.284.284 0 1 0 0-.568H6.313a.284.284 0 1 0 0 .568zm0 1.757h14.92a.284.284 0 1 0 0-.568H6.313a.284.284 0 1 0 0 .568zm-.284 1.577v9.199c0 .157.127.284.285.284h21.172a.284.284 0 0 0 .284-.284V6.568a.284.284 0 0 0-.284-.284H6.312a.284.284 0 0 0-.284.284zm6.279.284h14.893v2.445H12.308V6.852zm0 3.013h14.893v2.444H12.308V9.865zm0 3.012h14.893v2.605H12.308v-2.605zm-5.71-6.025h5.142v2.445H6.598V6.852zm0 3.013h5.142v2.444H6.598V9.865zm0 3.012h5.142v2.605H6.598v-2.605zm20.888 4.452H6.312a.284.284 0 0 0-.284.284v9.198a.284.284 0 1 0 .568 0v-2.889h5.143v2.889a.284.284 0 1 0 .568 0v-2.889H27.2v2.889a.284.284 0 1 0 .568 0v-9.199a.283.283 0 0 0-.283-.283h-.001zM11.74 23.353H6.598V20.91h5.142v2.443zm0-3.012H6.598v-2.444h5.142v2.444zm15.461 3.012H12.308V20.91h14.893v2.443zm0-3.012H12.308v-2.444h14.893v2.444zM2.281-.021a.284.284 0 0 0-.284.284v29.311a.284.284 0 1 0 .568 0V.263a.284.284 0 0 0-.284-.284zm-1.563 0a.284.284 0 0 0-.284.284v29.311a.284.284 0 1 0 .568 0V.263a.284.284 0 0 0-.284-.284z" style="fill:var(--color2, #ff6b09)"/></symbol><symbol id="icon-insurance" viewBox="0 0 28 32"><path fill="#ff6b09" d="M.542 13.742c0 .357-.542.357-.542 0C0 6.154 6.154 0 13.742 0c7.591 0 13.742 6.154 13.742 13.742 0 .357-.538.357-.538 0 0-5.129-8.429-5.132-8.429 0 0 .357-.555.357-.555 0 0-5.116-8.441-5.116-8.441 0 0 .357-.555.357-.555 0 0-5.107-8.425-5.142-8.425 0zm8.473-1.992c.147-2.952.61-5.599 1.285-7.62.539-1.607 1.22-2.826 1.992-3.511C6.498 1.252 1.807 5.644.759 11.341c1.995-2.877 6.602-2.647 8.257.409zm8.906-.133c-.149-2.838-.6-5.378-1.249-7.315-1.673-5.013-4.185-5.013-5.859 0-.649 1.937-1.097 4.477-1.249 7.315 1.801-3.059 6.557-3.059 8.357 0zm8.804-.276C25.68 5.644 20.989 1.252 15.192.62c.775.685 1.453 1.905 1.992 3.511.675 2.021 1.139 4.668 1.285 7.62 1.665-3.072 6.284-3.253 8.257-.409zM11.938 20.03v-2.791c-.503.334-.898.85-.898 1.48 0 .613.402 1.019.899 1.311zm.542.867c-.963-.441-1.979-.957-1.979-2.177 0-1.259.957-1.889 1.979-2.359v4.537zm3.066 3.343v2.823c.509-.338.908-.857.908-1.487 0-.619-.409-1.037-.908-1.336zm-.539-.869c.967.447 1.989.98 1.989 2.206 0 1.262-.963 1.891-1.989 2.359v-4.565z" style="fill:var(--color2, #ff6b09)"/><path fill="#ff6b09" d="M15.546 14.063c2.219.513 4.5 2.173 4.5 4.655 0 2.125-3.592 2.047-3.592 0 0-.633-.399-1.151-.908-1.486v3.971c2.053.671 4.506 1.875 4.506 4.373 0 2.485-2.281 4.143-4.507 4.652-.009 2.365-3.6 2.361-3.607-.003-1.265-.292-2.365-.883-3.16-1.665-.833-.824-1.327-1.859-1.327-2.985 0-2.092 3.588-2.092 3.588 0 0 .627.395 1.142.899 1.477v-3.968c-2.037-.659-4.503-1.898-4.503-4.373 0-2.485 2.281-4.143 4.503-4.652.009-2.365 3.601-2.362 3.607.003zm-3.066.007v.431c-2.112.419-4.506 1.771-4.506 4.211 0 2.346 2.628 3.397 4.507 3.977v5.243c-1.016-.464-1.98-1.09-1.98-2.355 0-1.382-2.511-1.382-2.511 0 0 .977.435 1.879 1.168 2.599.931.921 2.06 1.36 3.322 1.609v.435c0 1.664 2.527 1.664 2.527 0v-.431c2.119-.422 4.503-1.775 4.503-4.211 0-2.368-2.621-3.387-4.503-3.98v-5.24c1.019.464 1.989 1.09 1.989 2.362 0 1.347 2.508 1.401 2.508 0 0-2.437-2.381-3.793-4.497-4.214v-.435c0-1.665-2.527-1.665-2.527 0z" style="fill:var(--color2, #ff6b09)"/></symbol><symbol id="icon-female-student" viewBox="0 0 27 32"><path fill="#ff6b09" d="M-.103 31.759h26.785c.133-3.055-.087-8.123-1.964-10.535l-.068-.087-4.104-2.06c.089-.301.133-.576.151-.779a1.417 1.417 0 0 0-.103-.687l.003.009c-.677-1.62-2.109-2.472-2.897-2.835.24-.484.395-1.003.469-1.534.456-.131.805-.489.921-.942l.002-.009.479-1.947a1.31 1.31 0 0 0-.155-1.007l.003.006c-.08-.13-.178-.24-.291-.332l-.002-.002c1.35-3.068-.912-5.96-1.035-6.113C15.642.257 12.547.752 12.383.782c-4.466.935-6.189 4.358-5.216 8.372a1.312 1.312 0 0 0-.3 1.209l-.002-.009.481 1.949c.117.468.473.82.915.947a5.01 5.01 0 0 0 1.158 2.567l-.006-.007v1.543c-6.409 3.282-2.348 1.188-7.485 3.787-.01.048-2.409 2.599-2.053 10.158l.022.462zm25.854-.97h-4.408v-1.852l2.915-6.675c1.461 2.425 1.515 7.053 1.493 8.527zm-6.016-12.573c-.17 1.955-1.241 1.364-1.903 2.869-.52-.572-.677-1.258-.537-1.993.253-1.349-.571-1.749-.367-3.166l.031-.032v-.005c.017-.02.18-.213.227-.274 1.744.76 2.584 2.174 2.55 2.6zm-9.356-1.535a4.927 4.927 0 0 0 2.842.894 4.94 4.94 0 0 0 2.75-.831l-.018.011c.112 1.113.547 1.337.393 2.157a3.355 3.355 0 0 0-.054.439v.01l-3.002 3.383-3.838-4.327.927-.483V16.68zm-1.207-4.142V7.367c.467-.864 1.104-1.491 1.895-1.867 2.12 1.2 4.56 2.99 6.197 4.792-.002 2.294.007 2.3-.009 2.489l-.001.012c-.128 2.084-1.841 3.811-4.038 3.811-2.135 0-3.909-1.677-4.037-3.831a2.716 2.716 0 0 1-.008-.21v-.024.001zm-.598 6.347 4.716 5.317 3.167-3.569c.072.209.173.405.289.596l-3.456 4.322-5.153-6.446.437-.22zm9.656-7.127v-1.498l.36-.413c.02.759.102-.136-.36 1.911zM12.561 1.733c.192.012 2.765-.391 4.799 1.805.08.1 1.736 2.233 1.071 4.567-.228-1.039-.625-2.369-1.252-3.004l-.685.683c.619.627 1.027 2.537 1.181 3.527-2.84-2.972-6.504-4.853-6.555-4.885-.183.114-1.734.409-2.86 2.598l-.053.104v1.608l-.143.001c-.715-3.455.655-6.199 4.497-7.004zM7.963 9.735l.243.987v1.038l-.405-1.64c-.06-.244.121-.337.161-.385zm-.71 9.814L13.29 27.1l4.085-5.109c.445.398.658.454 1.6.939l-.317-1.078c-.081-.273.239-.713.431-.914a2.94 2.94 0 0 0 1.05-.966l.007-.011 3.333 1.673-3.102 7.1v2.055H6.202v-2.055l-3.103-7.099 4.153-2.085zM2.32 22.265l2.916 6.673v1.851H.828c-.022-1.473.033-6.1 1.492-8.525z" style="fill:var(--color2, #ff6b09)"/></symbol></defs></svg>